<svg viewBox="0 0 560 420" fill="none" xmlns="http://www.w3.org/2000/svg">
  <rect width="560" height="420" rx="16" fill="#F5F7FA"/>

  <!-- Main document mockup -->
  <rect x="60" y="30" width="280" height="360" rx="8" fill="white" stroke="#E2E8F0" stroke-width="1.5"/>

  <!-- Document header -->
  <rect x="60" y="30" width="280" height="50" rx="8" fill="#102A43"/>
  <rect x="60" y="72" width="280" height="8" fill="#102A43"/>

  <!-- AB Logo in header -->
  <rect x="76" y="42" width="26" height="26" rx="5" fill="#2C7A7B"/>
  <text x="82" y="60" fill="white" font-family="Georgia, serif" font-size="12" font-weight="700">A</text>
  <text x="93" y="60" fill="rgba(255,255,255,0.7)" font-family="Georgia, serif" font-size="12" font-weight="700">B</text>

  <text x="114" y="53" fill="white" font-family="system-ui, sans-serif" font-size="10" font-weight="600">R&amp;D Tax Credit Study</text>
  <text x="114" y="66" fill="rgba(255,255,255,0.5)" font-family="system-ui, sans-serif" font-size="8">Alexander &amp; Blake — Confidential</text>

  <!-- Section: Executive Summary -->
  <text x="80" y="105" fill="#102A43" font-family="system-ui, sans-serif" font-size="11" font-weight="700">Executive Summary</text>
  <rect x="80" y="114" width="240" height="3" rx="1.5" fill="#E2E8F0"/>
  <rect x="80" y="124" width="220" height="2.5" rx="1" fill="#CBD5E1"/>
  <rect x="80" y="132" width="235" height="2.5" rx="1" fill="#CBD5E1"/>
  <rect x="80" y="140" width="180" height="2.5" rx="1" fill="#CBD5E1"/>

  <!-- Credit amount highlight -->
  <rect x="80" y="154" width="140" height="32" rx="6" fill="rgba(44,122,123,0.1)" stroke="#2C7A7B" stroke-width="1"/>
  <text x="92" y="166" fill="#2C7A7B" font-family="system-ui, sans-serif" font-size="8" font-weight="600">ESTIMATED FEDERAL CREDIT</text>
  <text x="92" y="180" fill="#2C7A7B" font-family="system-ui, sans-serif" font-size="13" font-weight="800">$87,420</text>

  <rect x="230" y="154" width="90" height="32" rx="6" fill="rgba(44,122,123,0.06)" stroke="#2C7A7B" stroke-width="0.5"/>
  <text x="240" y="166" fill="#2C7A7B" font-family="system-ui, sans-serif" font-size="8" font-weight="600">SC STATE</text>
  <text x="240" y="180" fill="#2C7A7B" font-family="system-ui, sans-serif" font-size="13" font-weight="800">$14,570</text>

  <!-- Section: Qualifying Activities -->
  <text x="80" y="210" fill="#102A43" font-family="system-ui, sans-serif" font-size="11" font-weight="700">Qualifying Activities</text>
  <rect x="80" y="219" width="240" height="3" rx="1.5" fill="#E2E8F0"/>

  <!-- Activity list with checks -->
  <circle cx="90" cy="235" r="5" fill="#2C7A7B" opacity="0.15"/>
  <path d="M 87 235 L 89.5 237.5 L 94 233" stroke="#2C7A7B" stroke-width="1.5" stroke-linecap="round" fill="none"/>
  <rect x="102" y="232" width="180" height="2.5" rx="1" fill="#CBD5E1"/>

  <circle cx="90" cy="250" r="5" fill="#2C7A7B" opacity="0.15"/>
  <path d="M 87 250 L 89.5 252.5 L 94 248" stroke="#2C7A7B" stroke-width="1.5" stroke-linecap="round" fill="none"/>
  <rect x="102" y="247" width="160" height="2.5" rx="1" fill="#CBD5E1"/>

  <circle cx="90" cy="265" r="5" fill="#2C7A7B" opacity="0.15"/>
  <path d="M 87 265 L 89.5 267.5 L 94 263" stroke="#2C7A7B" stroke-width="1.5" stroke-linecap="round" fill="none"/>
  <rect x="102" y="262" width="195" height="2.5" rx="1" fill="#CBD5E1"/>

  <!-- Section: QRE Summary table -->
  <text x="80" y="295" fill="#102A43" font-family="system-ui, sans-serif" font-size="11" font-weight="700">QRE Summary</text>
  <rect x="80" y="304" width="240" height="3" rx="1.5" fill="#E2E8F0"/>

  <!-- Table header -->
  <rect x="80" y="314" width="240" height="16" rx="0" fill="#F1F5F9"/>
  <text x="88" y="325" fill="#64748B" font-family="system-ui, sans-serif" font-size="7" font-weight="600">CATEGORY</text>
  <text x="200" y="325" fill="#64748B" font-family="system-ui, sans-serif" font-size="7" font-weight="600">AMOUNT</text>
  <text x="260" y="325" fill="#64748B" font-family="system-ui, sans-serif" font-size="7" font-weight="600">QRE</text>

  <!-- Row 1 -->
  <text x="88" y="343" fill="#334155" font-family="system-ui, sans-serif" font-size="8">Wages</text>
  <text x="200" y="343" fill="#334155" font-family="system-ui, sans-serif" font-size="8">$1,240,000</text>
  <text x="260" y="343" fill="#2C7A7B" font-family="system-ui, sans-serif" font-size="8" font-weight="600">$449,250</text>

  <!-- Row 2 -->
  <rect x="80" y="349" width="240" height="16" fill="#FAFBFC"/>
  <text x="88" y="361" fill="#334155" font-family="system-ui, sans-serif" font-size="8">Contractors</text>
  <text x="200" y="361" fill="#334155" font-family="system-ui, sans-serif" font-size="8">$380,000</text>
  <text x="260" y="361" fill="#2C7A7B" font-family="system-ui, sans-serif" font-size="8" font-weight="600">$165,100</text>

  <!-- Row 3 -->
  <text x="88" y="379" fill="#334155" font-family="system-ui, sans-serif" font-size="8">Supplies</text>
  <text x="200" y="379" fill="#334155" font-family="system-ui, sans-serif" font-size="8">$95,000</text>
  <text x="260" y="379" fill="#2C7A7B" font-family="system-ui, sans-serif" font-size="8" font-weight="600">$10,650</text>

  <!-- Stacked documents behind (depth effect) -->
  <rect x="355" y="50" width="160" height="100" rx="6" fill="white" stroke="#E2E8F0" stroke-width="1"/>
  <rect x="370" y="62" width="30" height="3" rx="1.5" fill="#2C7A7B"/>
  <text x="370" y="79" fill="#64748B" font-family="system-ui, sans-serif" font-size="8" font-weight="600">Project Narrative</text>
  <rect x="370" y="88" width="125" height="2" rx="1" fill="#CBD5E1"/>
  <rect x="370" y="95" width="115" height="2" rx="1" fill="#CBD5E1"/>
  <rect x="370" y="102" width="120" height="2" rx="1" fill="#CBD5E1"/>
  <rect x="370" y="109" width="100" height="2" rx="1" fill="#CBD5E1"/>
  <rect x="370" y="116" width="110" height="2" rx="1" fill="#CBD5E1"/>
  <rect x="370" y="123" width="90" height="2" rx="1" fill="#CBD5E1"/>
  <rect x="370" y="130" width="105" height="2" rx="1" fill="#CBD5E1"/>
  <rect x="370" y="137" width="80" height="2" rx="1" fill="#CBD5E1"/>

  <!-- Methodology Memo card -->
  <rect x="355" y="168" width="160" height="90" rx="6" fill="white" stroke="#E2E8F0" stroke-width="1"/>
  <rect x="370" y="180" width="30" height="3" rx="1.5" fill="#102A43"/>
  <text x="370" y="197" fill="#64748B" font-family="system-ui, sans-serif" font-size="8" font-weight="600">Methodology Memo</text>
  <rect x="370" y="206" width="125" height="2" rx="1" fill="#CBD5E1"/>
  <rect x="370" y="213" width="100" height="2" rx="1" fill="#CBD5E1"/>
  <rect x="370" y="220" width="115" height="2" rx="1" fill="#CBD5E1"/>
  <rect x="370" y="227" width="90" height="2" rx="1" fill="#CBD5E1"/>
  <rect x="370" y="234" width="110" height="2" rx="1" fill="#CBD5E1"/>
  <rect x="370" y="241" width="75" height="2" rx="1" fill="#CBD5E1"/>

  <!-- Form 6765 card -->
  <rect x="355" y="276" width="160" height="90" rx="6" fill="white" stroke="#E2E8F0" stroke-width="1"/>
  <rect x="370" y="288" width="30" height="3" rx="1.5" fill="#102A43"/>
  <text x="370" y="305" fill="#64748B" font-family="system-ui, sans-serif" font-size="8" font-weight="600">Form 6765 Support</text>

  <!-- Form-like fields -->
  <rect x="370" y="314" width="60" height="10" rx="2" fill="#F1F5F9" stroke="#E2E8F0" stroke-width="0.5"/>
  <rect x="440" y="314" width="55" height="10" rx="2" fill="#F1F5F9" stroke="#E2E8F0" stroke-width="0.5"/>
  <rect x="370" y="330" width="60" height="10" rx="2" fill="#F1F5F9" stroke="#E2E8F0" stroke-width="0.5"/>
  <rect x="440" y="330" width="55" height="10" rx="2" fill="#F1F5F9" stroke="#E2E8F0" stroke-width="0.5"/>
  <rect x="370" y="346" width="125" height="10" rx="2" fill="rgba(44,122,123,0.08)" stroke="#2C7A7B" stroke-width="0.5"/>
  <text x="380" y="354" fill="#2C7A7B" font-family="system-ui, sans-serif" font-size="7" font-weight="600">Total Credit: $87,420</text>

  <!-- CPA Ready badge -->
  <rect x="370" y="385" width="130" height="24" rx="12" fill="#2C7A7B"/>
  <text x="400" y="401" fill="white" font-family="system-ui, sans-serif" font-size="9" font-weight="600">CPA-Ready Package</text>
  <circle cx="386" cy="397" r="6" fill="rgba(255,255,255,0.2)"/>
  <path d="M 383 397 L 385 399 L 390 394" stroke="white" stroke-width="1.5" stroke-linecap="round" fill="none"/>
</svg>
