<svg xmlns="http://www.w3.org/2000/svg" viewBox="0 0 360 54" fill="none">
  <!-- Monogram mark -->
  <rect width="48" height="48" rx="10" y="3" fill="#102A43"/>
  <clipPath id="accent-clip">
    <rect width="48" height="48" rx="10" y="3"/>
  </clipPath>
  <rect x="0" y="43" width="48" height="8" fill="#2C7A7B" clip-path="url(#accent-clip)"/>
  <!-- A letter path -->
  <path d="M10 38L18 14h4l8 24h-4l-2-7H16l-2 7h-4zm7-11h6l-3-11-3 11z" fill="white"/>
  <!-- B letter path -->
  <path d="M28 14h8c2 0 3.5 0.5 4.5 1.5S42 17.5 42 19c0 2-1 3.5-2.5 4.5 2 1 3 2.5 3 5 0 2-0.5 3.5-2 4.5S38 35 36 35h-8V14zm4 9h4c1 0 1.5-0.25 2-1s1-1.5 1-2.5-0.5-1.5-1-2-1-1-2-1h-4v6.5zm0 10h5c1 0 2-0.5 2.5-1s1-1.5 1-2.5-0.5-2-1-2.5-1.5-1-2.5-1H32v7z" fill="#2C7A7B"/>
  <!-- Company name -->
  <text x="60" y="26" font-family="Georgia, 'Times New Roman', serif" font-size="20" font-weight="400" fill="#102A43" letter-spacing="0.3">Alexander <tspan fill="#486581">&amp;</tspan> Blake</text>
  <!-- Tagline -->
  <text x="60" y="43" font-family="system-ui, -apple-system, sans-serif" font-size="9" font-weight="500" fill="#486581" letter-spacing="2">R&amp;D TAX CREDIT ADVISORY</text>
</svg>
